<?xml version="1.0" standalone="no"?><!DOCTYPE svg PUBLIC "-//W3C//DTD SVG 1.1//EN" "http://www.w3.org/Graphics/SVG/1.1/DTD/svg11.dtd"><svg t="1583485199847" class="icon" viewBox="0 0 1024 1024" version="1.1" xmlns="http://www.w3.org/2000/svg" p-id="8297" xmlns:xlink="http://www.w3.org/1999/xlink" width="128" height="128"><defs><style type="text/css"></style></defs><path d="M886.8 377.4c-5.3-8.9-18-16.1-28.3-16.1H167.7c-10.3 0-23 7.2-28.3 16.1l-54 90.7c-5.3 8.9-1.2 16.1 9.1 16.1h837.1c10.3 0 14.4-7.2 9.1-16.1l-53.9-90.7z" fill="#00B3E3" p-id="8298"></path><path d="M900.9 401.2H576.1v28.6H918l-17.1-28.6z m-792.7 28.6h338.1v-28.6h-321l-17.1 28.6z" fill="" p-id="8299"></path><path d="M608.5 479.6l-97.3-156.2-97.4 156.2H87.1v378h848.1v-378z" fill="#D1D3D3" p-id="8300"></path><path d="M638.9 499.9c-7.1 0-15.9-4.9-19.7-10.9l-5.9-9.4h-4.9L517.7 334c-4.3-2-8.9-2-13.3 0l-90.7 145.6H409l-5.9 9.4c-3.8 6-12.6 10.9-19.7 10.9H87.1v50.2h312.2c7.1 0 15.8-5 19.3-11.1l76.2-116.7c8.9-15.2 23.6-15.2 32.5 0L603.5 539c3.6 6.1 12.2 11.1 19.3 11.1H935v-50.2H638.9z" fill="" p-id="8301"></path><path d="M852.8 559.2h82.4v39.6h-82.4zM605.8 641.2h82.4v39.6h-82.4zM754.9 781.9h82.4v39.6h-82.4zM327.4 792.5h82.4v39.6h-82.4zM87.1 597.2h82.4v39.6H87.1zM286.2 515.2h82.4v39.6h-82.4z" fill="#A4A9AD" p-id="8302"></path><path d="M440.4 663h141.5v194.6H440.4z" fill="#333E48" p-id="8303"></path><path d="M467.4 708H496v53.9h-28.6zM526.3 708h28.6v53.9h-28.6zM292.5 630.2h83.2v114.4h-83.2z" fill="#FFFFFF" p-id="8304"></path><path d="M292.5 630.2h83.2v25.2h-83.2z" fill="" p-id="8305"></path><path d="M292.5 673.1h83.2v28.6h-83.2z" fill="#A93439" p-id="8306"></path><path d="M306.8 730.3h54.6v-85.8h-54.6v85.8z m68.9 28.6h-83.2c-7.9 0-14.3-6.4-14.3-14.3V630.2c0-7.9 6.4-14.3 14.3-14.3h83.2c7.9 0 14.3 6.4 14.3 14.3v114.4c0 7.9-6.4 14.3-14.3 14.3z" fill="#FF5959" p-id="8307"></path><path d="M131.1 630.2h83.2v114.4h-83.2z" fill="#FFFFFF" p-id="8308"></path><path d="M131.1 630.2h83.2v25.2h-83.2z" fill="" p-id="8309"></path><path d="M131.1 673.1h83.2v28.6h-83.2z" fill="#A93439" p-id="8310"></path><path d="M145.4 730.3H200v-85.8h-54.6v85.8z m68.9 28.6h-83.2c-7.9 0-14.3-6.4-14.3-14.3V630.2c0-7.9 6.4-14.3 14.3-14.3h83.2c7.9 0 14.3 6.4 14.3 14.3v114.4c0 7.9-6.4 14.3-14.3 14.3z" fill="#FF5959" p-id="8311"></path><path d="M646.7 630.2h83.2v114.4h-83.2z" fill="#FFFFFF" p-id="8312"></path><path d="M646.7 630.2h83.2v25.2h-83.2z" fill="" p-id="8313"></path><path d="M646.7 673.1h83.2v28.6h-83.2z" fill="#A93439" p-id="8314"></path><path d="M661 730.3h54.6v-85.8H661v85.8z m68.8 28.6h-83.2c-7.9 0-14.3-6.4-14.3-14.3V630.2c0-7.9 6.4-14.3 14.3-14.3h83.2c7.9 0 14.3 6.4 14.3 14.3v114.4c0 7.9-6.4 14.3-14.3 14.3z" fill="#FF5959" p-id="8315"></path><path d="M808 630.2h83.2v114.4H808z" fill="#FFFFFF" p-id="8316"></path><path d="M808 630.2h83.2v25.2H808z" fill="" p-id="8317"></path><path d="M808 673.1h83.2v28.6H808z" fill="#A93439" p-id="8318"></path><path d="M822.3 730.3h54.6v-85.8h-54.6v85.8z m68.9 28.6H808c-7.9 0-14.3-6.4-14.3-14.3V630.2c0-7.9 6.4-14.3 14.3-14.3h83.2c7.9 0 14.3 6.4 14.3 14.3v114.4c0 7.9-6.4 14.3-14.3 14.3z" fill="#FF5959" p-id="8319"></path><path d="M511.2 152.5h165.1v94.6H511.2z" fill="#FFB819" p-id="8320"></path><path d="M511.2 152.5h43.2v94.6h-43.2z" fill="" p-id="8321"></path><path d="M511.2 337.7c-7.9 0-14.3-6.4-14.3-14.3v-184c0-7.9 6.4-14.3 14.3-14.3s14.3 6.4 14.3 14.3v184.1c0 7.8-6.4 14.2-14.3 14.2z" fill="#333E48" p-id="8322"></path><path d="M528.2 308.8c-9.4-15-24.7-15-34.1 0l-91 145.2c-3.8 6-12.6 10.9-19.7 10.9H79.3c-7.1 0-12.9 5.8-12.9 12.9v24.5c0 7.1 5.8 12.9 12.9 12.9h320.1c7.1 0 15.8-5 19.3-11.1l76.2-116.7c8.9-15.2 23.6-15.2 32.5 0l76.2 116.7c3.6 6.1 12.2 11.1 19.3 11.1h320c7.1 0 12.9-5.8 12.9-12.9v-24.5c0-7.1-5.8-12.9-12.9-12.9h-304c-7.1 0-15.9-4.9-19.7-10.9l-91-145.2z" fill="#0071CE" p-id="8323"></path><path d="M511.2 559.2m-64.9 0a64.9 64.9 0 1 0 129.8 0 64.9 64.9 0 1 0-129.8 0Z" fill="#FFFFFF" p-id="8324"></path><path d="M536 544.9h-10.6v-10.6c0-7.9-6.4-14.3-14.3-14.3s-14.3 6.4-14.3 14.3v24.9c0 7.9 6.4 14.3 14.3 14.3H536c7.9 0 14.3-6.4 14.3-14.3s-6.4-14.3-14.3-14.3z" fill="#333E48" p-id="8325"></path><path d="M959.7 892.9c0 4.2-3.5 7.7-7.7 7.7H74.2c-4.2 0-7.7-3.5-7.7-7.7v-27.6c0-4.2 3.5-7.7 7.7-7.7H952c4.2 0 7.7 3.5 7.7 7.7v27.6z" fill="#00AD68" p-id="8326"></path><path d="M397.8 857.6h230.6v43H397.8z" fill="#A4A9AD" p-id="8327"></path><path d="M914.8 857.6c0-36-29.2-65.2-65.2-65.2s-65.2 29.2-65.2 65.2h130.4zM279.4 857.6c0-36-29.2-65.2-65.2-65.2S149 821.6 149 857.6h130.4z" fill="#218649" p-id="8328"></path></svg>