<?xml version="1.0" standalone="no"?><!DOCTYPE svg PUBLIC "-//W3C//DTD SVG 1.1//EN" "http://www.w3.org/Graphics/SVG/1.1/DTD/svg11.dtd"><svg t="1583485148951" class="icon" viewBox="0 0 1024 1024" version="1.1" xmlns="http://www.w3.org/2000/svg" p-id="6673" xmlns:xlink="http://www.w3.org/1999/xlink" width="128" height="128"><defs><style type="text/css"></style></defs><path d="M896 64H128c-35.3 0-64 28.7-64 64v544c0 17.7 14.3 32 32 32h671.6v224c0 17.7 14.3 32 32 32s32-14.3 32-32V704H928c17.7 0 32-14.3 32-32V128c0-35.3-28.7-64-64-64z" fill="#3D5AFE" p-id="6674"></path><path d="M704 512c0-247.4-200.6-448-448-448H128c-27.3 0-50.6 17.1-59.8 41.1-2.7 7.1-4.2 14.8-4.2 22.9v544c0 17.7 14.3 32 32 32h95.6v224c0 17.7 14.3 32 32 32s32-14.3 32-32V704h405.3c27.6-58.2 43.1-123.3 43.1-192z" fill="#536DFE" p-id="6675"></path><path d="M453.9 475.8l-0.6 0.6 0.6-0.6zM456.4 472.9c-0.4 0.4-0.8 0.9-1.1 1.3 0.3-0.4 0.7-0.8 1.1-1.3zM478.4 437.4c0.4-1 0.8-1.9 1.2-2.9-0.4 1-0.8 1.9-1.2 2.9zM489.1 385.9c0 2.2-0.1 4.4-0.2 6.6 0.1-2.1 0.2-4.3 0.2-6.6zM484.5 419.6c0.7-2.7 1.4-5.4 1.9-8.1-0.6 2.7-1.2 5.4-1.9 8.1z" fill="#FFEA00" p-id="6676"></path><path d="M511 366.4l-22.7 2.5c0.5 4.4 0.8 8.8 0.8 13.2V385.9c-0.2 17.9-3.9 35.1-10.8 51.5-0.1 0.2-0.1 0.3-0.2 0.5 0.1-0.1 0.1-0.3 0.2-0.4-0.1 0.3-0.3 0.6-0.4 0.9 0.1-0.2 0.1-0.3 0.2-0.5-0.1 0.1-0.1 0.3-0.2 0.5-0.2 0.4-0.4 0.8-0.5 1.2-0.3 0.6-0.6 1.3-0.9 2-0.1 0.3-0.3 0.6-0.4 0.9-0.4 0.8-0.8 1.6-1.1 2.4-0.1 0.1-0.1 0.3-0.2 0.4-4.4 8.8-9.7 17.1-15.9 24.8l-0.1 0.1c-0.2 0.3-0.5 0.6-0.7 0.9-0.1 0.1-0.2 0.2-0.2 0.3-0.2 0.3-0.5 0.6-0.7 0.8-0.3 0.3-0.5 0.6-0.7 0.9-0.4 0.4-0.8 0.9-1.1 1.3-0.4 0.5-0.9 1-1.4 1.5l-0.6 0.6c-0.6 0.7-1.3 1.4-1.9 2l-0.2 0.2c-1.5 1.6-3 3.1-4.6 4.6l-0.2 0.2c-0.7 0.6-1.4 1.3-2 1.9l-0.6 0.6c-0.5 0.5-1 0.9-1.5 1.4-0.4 0.4-0.9 0.7-1.3 1.1-0.3 0.3-0.6 0.5-0.9 0.7-0.7 0.6-1.4 1.1-2 1.7l-0.1 0.1c-7.7 6.2-16 11.5-24.7 15.9-0.1 0.1-0.3 0.1-0.4 0.2-0.8 0.4-1.6 0.8-2.4 1.1-0.3 0.1-0.6 0.3-0.9 0.4-0.6 0.3-1.3 0.6-2 0.9-0.4 0.2-0.8 0.4-1.2 0.5-0.3 0.1-0.6 0.3-0.9 0.4-16.3 6.9-33.6 10.5-51.5 10.7H350.3c-17.9-0.3-35.1-3.9-51.5-10.7-0.3-0.1-0.6-0.3-0.9-0.4-0.4-0.2-0.8-0.4-1.2-0.5-0.6-0.3-1.3-0.6-2-0.9-0.3-0.1-0.6-0.3-0.9-0.4-0.8-0.4-1.6-0.8-2.4-1.1-0.1-0.1-0.3-0.1-0.4-0.2-8.8-4.4-17.1-9.7-24.7-15.9l-0.1-0.1c-0.7-0.5-1.4-1.1-2-1.7-0.3-0.3-0.6-0.5-0.9-0.7-0.4-0.4-0.9-0.8-1.3-1.1-0.5-0.4-1-0.9-1.5-1.4l-0.6-0.6c-0.2-0.2-0.5-0.4-0.7-0.6 0.2 0.2 0.4 0.4 0.6 0.5l0.6 0.6c0.5 0.5 1 0.9 1.5 1.4 0.4 0.4 0.9 0.7 1.3 1.1 0.3 0.3 0.6 0.5 0.9 0.7 0.7 0.6 1.4 1.1 2 1.7l0.1 0.1c7.6 6.1 15.9 11.5 24.7 15.9 0.1 0.1 0.3 0.1 0.4 0.2 0.8 0.4 1.6 0.8 2.4 1.1 0.3 0.1 0.6 0.3 0.9 0.4 0.6 0.3 1.3 0.6 2 0.9 0.4 0.2 0.8 0.4 1.2 0.5 16.1 7 33.8 10.9 52.4 11.1H354c18.6-0.3 36.3-4.2 52.4-11.1 0.4-0.2 0.8-0.4 1.2-0.5 0.6-0.3 1.3-0.6 2-0.9 0.3-0.1 0.6-0.3 0.9-0.4 0.8-0.4 1.6-0.8 2.4-1.1 0.1-0.1 0.3-0.1 0.4-0.2 8.9-4.4 17.1-9.8 24.7-15.9l0.1-0.1c0.7-0.5 1.4-1.1 2-1.7 0.3-0.3 0.6-0.5 0.9-0.7 0.4-0.4 0.9-0.8 1.3-1.1 0.5-0.4 1-0.9 1.5-1.4l0.6-0.6c0.7-0.6 1.4-1.3 2-1.9l0.2-0.2c0.8-0.8 1.6-1.5 2.3-2.3 0.7-0.8 1.5-1.5 2.3-2.3l0.2-0.2c0.6-0.7 1.3-1.4 1.9-2l0.6-0.6c0.5-0.5 0.9-1 1.4-1.5 0.4-0.4 0.8-0.9 1.1-1.3 0.3-0.3 0.5-0.6 0.7-0.9 0.6-0.7 1.1-1.4 1.7-2l0.1-0.1c6.1-7.6 11.5-15.9 15.9-24.8 0.1-0.1 0.1-0.3 0.2-0.4 0.4-0.8 0.8-1.6 1.1-2.4 0.1-0.3 0.3-0.6 0.4-0.9 0.3-0.6 0.6-1.3 0.9-2 0.2-0.4 0.4-0.8 0.5-1.2 7-16.1 10.9-33.8 11.1-52.4v-0.1-1.8V382.1c-0.1-4.5-0.3-8.9-0.8-13.2l-68.1 7.7c0.3 2.5 0.4 5 0.4 7.5 0 37.8-30.7 68.5-68.5 68.5s-68.5-30.7-68.5-68.5 30.7-68.5 68.5-68.5c2.6 0 5.1 0.1 7.6 0.4l7.6-68.2h0.1l2.5-22.7c-5.9-0.7-11.8-1.1-17.8-1.1-88.4 0-160 71.6-160 160s71.6 160 160 160 160-71.6 160-160c0-6-0.3-11.9-1-17.6zM254.6 480.3l0.5 0.5 2.3 2.3 0.1 0.1-2.9-2.9z m3.1 3.1l-0.1-0.1c0.2 0.2 0.4 0.4 0.6 0.5-0.2-0.2-0.3-0.3-0.5-0.4z" fill="#FFEA00" p-id="6677"></path><path d="M478 438.3c-0.2 0.4-0.4 0.8-0.5 1.2 0.1-0.4 0.3-0.8 0.5-1.2zM405 257.5c0.4 0.2 0.8 0.3 1.2 0.5-0.3-0.1-0.6-0.3-0.9-0.4 0 0-0.2 0-0.3-0.1zM405 257.5c-7.4-3.1-15.2-5.6-23.3-7.4 8 1.8 15.8 4.2 23.3 7.4z" fill="#FFEA00" p-id="6678"></path><path d="M409.4 259.5c0.3 0.1 0.6 0.3 0.9 0.4 0.8 0.4 1.6 0.8 2.4 1.1 0.1 0.1 0.3 0.1 0.4 0.2 8.8 4.4 17.1 9.7 24.8 15.9l0.1 0.1c0.7 0.5 1.4 1.1 2 1.7 0.2 0.1 0.3 0.3 0.5 0.4-0.1-0.1-0.3-0.2-0.4-0.3-0.7-0.6-1.4-1.1-2-1.7l-0.1-0.1c-7.6-6.1-15.9-11.5-24.8-15.9-0.1-0.1-0.3-0.1-0.4-0.2-0.8-0.4-1.6-0.8-2.4-1.1-0.3-0.2-0.6-0.3-1-0.5-0.6-0.2-1.3-0.5-1.9-0.8-0.4-0.2-0.8-0.4-1.2-0.5-7.8-3.4-16-6.1-24.6-7.9l-14.9 67c25.9 5.7 46.3 26.1 52 52l67-14.9v-0.2l22.2-5c-13.4-60.4-61-108-121.5-121.4l-4.9 22.3c8.1 1.8 16 4.3 23.6 7.5 0.3 0.1 0.6 0.3 0.9 0.4 0.4 0.2 0.8 0.4 1.2 0.5 0.8 0.4 1.5 0.7 2.1 1z m42 30l-0.1-0.1c0 0.1 0 0.1 0.1 0.1z m-5-4.9l0.2 0.2c1 0.9 2 1.9 2.9 2.9-0.2-0.2-0.3-0.4-0.5-0.5l-2.3-2.3-0.3-0.3c-0.1 0-0.2-0.2-0.3-0.3l0.3 0.3z m-2.7-2.5l0.6 0.6c0.2 0.1 0.3 0.3 0.5 0.4-0.1-0.1-0.3-0.2-0.4-0.4-0.2-0.2-0.4-0.3-0.7-0.6l-0.5-0.5 0.5 0.5z m-2.8-2.5c0.4 0.4 0.9 0.8 1.3 1.1 0.2 0.2 0.5 0.4 0.7 0.6l-0.6-0.6c-0.5-0.3-0.9-0.7-1.4-1.1-0.1 0-0.2-0.2-0.3-0.3l0.3 0.3z" fill="#FFFF8D" p-id="6679"></path><path d="M672 288.3h128c17.7 0 32 14.3 32 32s-14.3 32-32 32H672c-17.7 0-32-14.3-32-32s14.3-32 32-32zM672 415.7h128c17.7 0 32 14.3 32 32s-14.3 32-32 32H672c-17.7 0-32-14.3-32-32s14.3-32 32-32z" fill="#FFEA00" p-id="6680"></path></svg>